<?xml version="1.0" encoding="UTF-8"?>
<svg version="1.1" xmlns="http://www.w3.org/2000/svg" width="41" height="41">
<path d="M0 0 C2.97 0 5.94 0 9 0 C9.33 2.31 9.66 4.62 10 7 C10.556875 6.505 11.11375 6.01 11.6875 5.5 C14.38162983 3.75245633 15.85375007 3.73781251 19 4 C19.31944345 7.51387796 19.43883512 9.37550387 17.375 12.3125 C14.56041967 14.31233339 12.40680413 14.69029053 9 15 C9 17.31 9 19.62 9 22 C9.99 22 10.98 22 12 22 C12.33 22.66 12.66 23.32 13 24 C13.66 23.34 14.32 22.68 15 22 C17.625 22.375 17.625 22.375 20 23 C20.6875 25.3125 20.6875 25.3125 21 28 C19.8125 29.875 19.8125 29.875 18 31 C15.86254078 30.74853421 14.54074221 30.54074221 13 29 C12.67 29.66 12.34 30.32 12 31 C8.04 31 4.08 31 0 31 C0 26.05 0 21.1 0 16 C-1.32 16 -2.64 16 -4 16 C-4 13.03 -4 10.06 -4 7 C-2.68 7 -1.36 7 0 7 C0 4.69 0 2.38 0 0 Z " fill="#18340C" transform="translate(12,5)"/>
</svg>
